<svg width="38" height="23" viewBox="0 0 38 23" fill="none" xmlns="http://www.w3.org/2000/svg">
<path d="M1.04167 2.08333C0.466375 2.08333 0 1.61696 0 1.04167C0 0.466375 0.466375 0 1.04167 0H36.4583C37.0335 0 37.5 0.466375 37.5 1.04167C37.5 1.61696 37.0335 2.08333 36.4583 2.08333H1.04167ZM1.04167 12.5C0.466375 12.5 0 12.0335 0 11.4583C0 10.8831 0.466375 10.4167 1.04167 10.4167H36.4583C37.0335 10.4167 37.5 10.8831 37.5 11.4583C37.5 12.0335 37.0335 12.5 36.4583 12.5H1.04167ZM1.04167 22.9167C0.466375 22.9167 0 22.4502 0 21.875C0 21.2998 0.466375 20.8333 1.04167 20.8333H36.4583C37.0335 20.8333 37.5 21.2998 37.5 21.875C37.5 22.4502 37.0335 22.9167 36.4583 22.9167H1.04167Z" fill="white"/>
</svg>
