<svg xmlns="http://www.w3.org/2000/svg" width="59" height="59" fill="none">
<path fill="#55281d" fill-rule="evenodd" d="M29.039 0q8.114.093 14.658 3.988a29.27 29.27 0 0 1 10.417 10.48q3.872 6.585 3.964 14.748-.23 11.168-7.045 19.077c-4.543 5.272-10.362 8.535-16.386 9.785V37.204h5.695L41.63 29h-8.623v-5.372A4.67 4.67 0 0 1 34 20.543q1.035-1.32 3.643-1.386h5.207V11.97q-.111-.037-2.127-.285a42 42 0 0 0-4.589-.285q-5.206.024-8.236 2.937-3.029 2.913-3.094 8.429V29H18.24v8.204h6.563v20.874c-7.397-1.25-13.216-4.513-17.76-9.785Q.232 40.383 0 29.216q.092-8.163 3.964-14.748A29.27 29.27 0 0 1 14.38 3.988Q20.926.093 29.039 0" clip-rule="evenodd"/>
</svg>