<svg xmlns="http://www.w3.org/2000/svg" width="60" height="60" fill="none">
<path fill="#55281d" d="m30.59 60-.597-.001c-4.703.011-9.048-.108-13.275-.365-3.874-.236-7.41-1.575-10.228-3.872-2.718-2.217-4.574-5.214-5.517-8.907-.82-3.215-.864-6.371-.905-9.424-.03-2.19-.062-4.786-.068-7.426.006-2.65.038-5.246.068-7.436.041-3.052.085-6.209.905-9.424.943-3.694 2.799-6.69 5.517-8.907C9.307 1.94 12.844.602 16.72.366 20.945.109 25.29-.011 30.005.001c4.704-.01 9.048.108 13.274.365 3.875.236 7.411 1.575 10.228 3.872 2.72 2.216 4.575 5.213 5.518 8.907.82 3.215.863 6.372.905 9.424.03 2.19.062 4.786.068 7.425v.011c-.006 2.64-.038 5.235-.068 7.426-.042 3.052-.085 6.208-.905 9.424-.943 3.693-2.799 6.69-5.517 8.907-2.818 2.297-6.354 3.636-10.229 3.872-4.047.246-8.204.366-12.689.366m-.597-4.689c4.627.011 8.875-.105 13.002-.356 2.93-.178 5.47-1.129 7.55-2.826 1.924-1.569 3.249-3.733 3.938-6.433.683-2.676.722-5.55.76-8.33.03-2.175.06-4.752.067-7.366a659 659 0 0 0-.067-7.367c-.038-2.779-.078-5.653-.76-8.33-.69-2.7-2.014-4.864-3.938-6.433-2.08-1.696-4.62-2.647-7.55-2.825a205 205 0 0 0-12.99-.357 204 204 0 0 0-13.002.357c-2.93.178-5.47 1.129-7.55 2.825-1.924 1.569-3.249 3.733-3.938 6.433-.683 2.677-.722 5.55-.76 8.33-.03 2.178-.061 4.756-.067 7.372.006 2.605.037 5.184.067 7.362.038 2.779.077 5.653.76 8.33.69 2.699 2.014 4.863 3.937 6.432 2.081 1.697 4.621 2.647 7.551 2.825 4.127.252 8.376.369 12.99.357m-.112-10.663c-8.076 0-14.648-6.57-14.648-14.648S21.805 15.35 29.881 15.35c8.078 0 14.649 6.572 14.649 14.649S37.959 44.648 29.88 44.648m0-24.61c-5.492 0-9.96 4.47-9.96 9.962s4.468 9.96 9.96 9.96 9.961-4.468 9.961-9.96-4.468-9.961-9.96-9.961m16.29-9.374a3.516 3.516 0 1 0 0 7.031 3.516 3.516 0 0 0 0-7.031"/>
</svg>