<svg xmlns="http://www.w3.org/2000/svg" width="60" height="60" fill="none"><path fill="#55281d" d="M8.906 21.094c0 10.42 7.955 21.724 14.974 31.494 1.669 2.32 3.267 4.544 4.657 6.63a1.758 1.758 0 0 0 2.925 0c1.39-2.087 2.989-4.31 4.658-6.63 7.019-9.77 14.974-21.074 14.974-31.494C51.094 9.462 41.632 0 30 0S8.906 9.462 8.906 21.094m31.64 0c0 5.816-4.73 10.547-10.546 10.547S19.453 26.91 19.453 21.094 24.184 10.547 30 10.547s10.547 4.73 10.547 10.547"/><path fill="#55281d" d="M30 28.125a7.031 7.031 0 1 0 0-14.062 7.031 7.031 0 0 0 0 14.062"/></svg>