<svg xmlns="http://www.w3.org/2000/svg" width="234" height="46" fill="none"><path fill="#fff" d="M60.564 12.102v26.861h-5.06v-26.86h-8.27v-4.3h21.558v4.3zM73.32 22q.744-2 1.956-2.96 1.233-.957 3.04-.957.978 0 1.913.234a9.3 9.3 0 0 1 1.871.681l-1.658 3.917a4 4 0 0 0-1.297-.618 5.1 5.1 0 0 0-1.53-.213q-2.297 0-3.296 1.852-1 1.83-1 6.173v8.854h-4.612v-20.22h4.613zM103.7 38.963h-4.614v-2.618q-1.233 1.746-2.89 2.597-1.638.85-3.764.851-4.273 0-6.74-2.916-2.444-2.937-2.444-8.024 0-4.832 2.509-7.79 2.508-2.98 6.548-2.98 2.466 0 4.21 1.043 1.763 1.021 2.572 2.958v-3.299h4.613zM99.214 28.81q0-3.128-1.467-4.874-1.446-1.745-4.06-1.745-2.615 0-4.125 1.81-1.488 1.786-1.488 4.98 0 3.213 1.446 4.959t4.082 1.745q2.487 0 4.039-1.894 1.573-1.894 1.573-4.98M117.157 40.176l-10.566-21.39h5.039l4.4 10.152q.213.468.511 1.405.297.937.616 2.235.213-.915.489-1.81.298-.915.702-1.83l4.379-10.153h5.017zM150.067 29.555h-16.115q.17 2.831 1.68 4.428 1.509 1.575 4.018 1.575 2.232 0 3.72-.937 1.488-.936 2.594-3.022l3.89 2.17q-1.7 3.045-4.209 4.534-2.508 1.49-5.889 1.49-4.847 0-7.717-2.958-2.87-2.96-2.87-7.897 0-4.745 2.955-7.79 2.976-3.065 7.632-3.065 4.869 0 7.59 2.788 2.721 2.79 2.721 7.812zm-4.783-3.107q-.277-2.171-1.659-3.3Q142.244 22 139.841 22q-2.274 0-3.656 1.107t-1.935 3.342zM155.106 38.963V5.973h4.613v32.99zM166.543 38.963V5.973h4.614v32.99zM177.364 10.059q0-1.17.851-2.022.871-.852 2.062-.852 1.233 0 2.041.83.83.809.829 2.044 0 1.234-.829 2.086-.83.83-2.041.83-1.19 0-2.062-.852-.85-.872-.851-2.064m.617 28.904V18.785h4.613v20.178zM208.17 38.963h-4.614v-2.618q-1.233 1.746-2.891 2.597-1.637.85-3.763.851-4.273 0-6.739-2.916-2.445-2.937-2.445-8.024 0-4.832 2.508-7.79 2.51-2.98 6.548-2.98 2.466 0 4.21 1.043 1.764 1.021 2.572 2.958v-3.299h4.614zm-4.486-10.153q0-3.128-1.467-4.874-1.446-1.745-4.061-1.745t-4.124 1.81q-1.488 1.786-1.488 4.98 0 3.213 1.445 4.959t4.082 1.745q2.487 0 4.04-1.894 1.573-1.894 1.573-4.98M214.547 38.963V18.785h4.337v3.3q1.383-2.087 3.253-3.044 1.87-.958 4.55-.958 2.253 0 3.826.724 1.595.702 2.488 2.107.531.83.765 1.937t.234 3.874v12.238h-4.656V28.598q0-3.98-.978-5.279-.957-1.32-3.423-1.32-1.616 0-2.891.596-1.254.596-1.977 1.682-.51.723-.723 1.873-.19 1.128-.191 3.618v9.195zM14.443 33.052l5.917 5.832 5.916-5.833-5.916-5.832zM20.36 4.744v.009a6.64 6.64 0 0 0-4.677 1.909l-.006-.006a6.47 6.47 0 0 0-1.934 4.617 6.45 6.45 0 0 0 1.928 4.61h.009l4.68 4.61 4.677-4.61h.009a6.46 6.46 0 0 0 1.939-4.61h-.009c0-1.67-.646-3.34-1.936-4.611a6.66 6.66 0 0 0-4.68-1.918m9.327 31.669-7.622 7.513-1.705 1.681-1.706-1.68-7.621-7.514-7.622 7.513L0 40.565l16.952-16.708-4.677-4.61.006-.007a11.15 11.15 0 0 1-3.357-7.966 11.15 11.15 0 0 1 3.351-7.964v-.006A11.49 11.49 0 0 1 20.36 0v.009c2.93 0 5.86 1.099 8.087 3.295a11.16 11.16 0 0 1 3.348 7.972h-.009c0 2.883-1.115 5.766-3.345 7.967l.006.006-4.677 4.608 16.95 16.708-3.411 3.362z"/></svg>