<svg xmlns="http://www.w3.org/2000/svg" width="48" height="48" fill="none"><path fill="#55281d" d="M48.001 24.722c.36-13.74-10.68-24.9-24.36-24.72-13.14.18-23.76 11.04-23.64 24.18.06 9.42 5.58 17.52 13.5 21.42.48.24 1.02-.12.96-.66-.06-1.56 0-3.18.3-4.5s1.5-6.36 2.28-9.66c.36-1.62.42-3.3.12-4.92-.12-.54-.18-1.14-.18-1.86 0-3.54 2.04-6.18 4.62-6.18 2.16 0 3.24 1.62 3.24 3.6 0 2.16-1.38 5.46-2.1 8.52-.6 2.52 1.26 4.62 3.78 4.62 4.56 0 8.04-4.8 8.04-11.7 0-6.12-4.38-10.38-10.68-10.38-7.26 0-11.52 5.46-11.52 11.1 0 2.22.84 4.56 1.92 5.82q.27.36.18.72c-.18.78-.6 2.52-.72 2.88-.12.48-.36.54-.84.36-3.18-1.56-5.22-6.24-5.22-9.96 0-8.04 5.82-15.42 16.86-15.42 8.82 0 15.72 6.3 15.72 14.76 0 8.82-5.52 15.84-13.26 15.84-2.04 0-3.96-.84-5.1-1.98a.643.643 0 0 0-1.08.3c-.42 1.5-1.02 4.02-1.26 4.8-.36 1.44-1.14 3.12-1.98 4.62-.24.36 0 .9.42.96 1.98.48 4.02.78 6.12.72 12.72-.12 23.52-10.68 23.88-23.28"/></svg>