<svg xmlns="http://www.w3.org/2000/svg" style="display:none">

  <symbol id="arrow-right" viewBox="0 0 24 24" fill="none">
    <path d="M59.201 22.012a2.727 2.727 0 0 0 0-3.857L41.845.8a2.727 2.727 0 1 0-3.857 3.857l15.428 15.428L37.988 35.51a2.727 2.727 0 0 0 3.857 3.857zM0 22.811h57.273v-5.455H0z"/>
  </symbol>

  <symbol id="menu" viewBox="0 0 24 24" fill="none">
    <path d="M1.25 2.5a1.25 1.25 0 0 1 0-2.5h42.5a1.25 1.25 0 0 1 0 2.5zm0 12.5a1.25 1.25 0 0 1 0-2.5h42.5a1.25 1.25 0 0 1 0 2.5zm0 12.5a1.25 1.25 0 0 1 0-2.5h42.5a1.25 1.25 0 0 1 0 2.5z"/>
  </symbol>

  <symbol id="close" viewBox="0 0 24 24" fill="none">
    <path d="M19 6.41L17.59 5 12 10.59 6.41 5 5 6.41 10.59 12 5 17.59 6.41 19 12 13.41 17.59 19 19 17.59 13.41 12z"/>
  </symbol>

  <symbol id="close" viewBox="0 0 24 24" fill="none">
    <path d="M200 72.745L183.255 56L128 111.255L72.745 56L56 72.745L111.255 128L56 183.255L72.745 200L128 144.745L183.255 200L200 183.255L144.745 128L200 72.745Z" fill="black"/>
  </symbol>
</svg>