<svg xmlns="http://www.w3.org/2000/svg" width="48" height="40" fill="none"><path fill="#55281d" d="M48 4.62c-1.8.78-3.66 1.32-5.64 1.56 2.04-1.2 3.6-3.12 4.32-5.46-1.92 1.14-4.02 1.92-6.24 2.4A9.87 9.87 0 0 0 33.24 0c-5.46 0-9.84 4.44-9.84 9.84 0 .78.06 1.5.24 2.22C15.48 11.7 8.28 7.74 3.42 1.8c-3.48 6.24.42 11.4 3 13.14-1.56 0-3.12-.48-4.44-1.2 0 4.86 3.42 8.88 7.86 9.78-.96.3-3.12.48-4.44.18 1.26 3.9 4.92 6.78 9.18 6.84C11.22 33.18 6.3 35.28 0 34.62c4.38 2.82 9.54 4.44 15.12 4.44 18.12 0 27.96-15 27.96-27.96 0-.42 0-.84-.06-1.26 2.04-1.5 3.72-3.24 4.98-5.22"/></svg>